<svg width="40" height="40" viewBox="0 0 40 40" fill="none" xmlns="http://www.w3.org/2000/svg">
<path d="M20.0001 20C20.9167 20 21.7017 19.6734 22.3551 19.02C23.0073 18.3678 23.3334 17.5834 23.3334 16.6667C23.3334 15.75 23.0073 14.965 22.3551 14.3117C21.7017 13.6595 20.9167 13.3334 20.0001 13.3334C19.0834 13.3334 18.299 13.6595 17.6467 14.3117C16.9934 14.965 16.6667 15.75 16.6667 16.6667C16.6667 17.5834 16.9934 18.3678 17.6467 19.02C18.299 19.6734 19.0834 20 20.0001 20ZM20.0001 32.25C23.389 29.1389 25.9029 26.3123 27.5417 23.77C29.1806 21.2289 30.0001 18.9723 30.0001 17C30.0001 13.9723 29.0345 11.4928 27.1034 9.56171C25.1734 7.63171 22.8056 6.66671 20.0001 6.66671C17.1945 6.66671 14.8262 7.63171 12.8951 9.56171C10.9651 11.4928 10.0001 13.9723 10.0001 17C10.0001 18.9723 10.8195 21.2289 12.4584 23.77C14.0973 26.3123 16.6112 29.1389 20.0001 32.25ZM20.0001 36.0417C19.7779 36.0417 19.5556 36 19.3334 35.9167C19.1112 35.8334 18.9167 35.7223 18.7501 35.5834C14.6945 32 11.6667 28.6739 9.66675 25.605C7.66675 22.535 6.66675 19.6667 6.66675 17C6.66675 12.8334 8.0073 9.51393 10.6884 7.04171C13.3684 4.56948 16.4723 3.33337 20.0001 3.33337C23.5279 3.33337 26.6317 4.56948 29.3117 7.04171C31.9929 9.51393 33.3334 12.8334 33.3334 17C33.3334 19.6667 32.3334 22.535 30.3334 25.605C28.3334 28.6739 25.3056 32 21.2501 35.5834C21.0834 35.7223 20.889 35.8334 20.6667 35.9167C20.4445 36 20.2223 36.0417 20.0001 36.0417Z" fill="white"/>
</svg>
