<svg width="40" height="40" viewBox="0 0 40 40" fill="none" xmlns="http://www.w3.org/2000/svg">
<path d="M16 26L18.3333 23.625L14.7083 20L18.3333 16.375L16 14L10 20L16 26ZM24 26L30 20L24 14L21.6667 16.375L25.2917 20L21.6667 23.625L24 26ZM8.33333 35C7.41667 35 6.63167 34.6739 5.97833 34.0217C5.32611 33.3683 5 32.5833 5 31.6667V8.33333C5 7.41667 5.32611 6.63167 5.97833 5.97833C6.63167 5.32611 7.41667 5 8.33333 5H31.6667C32.5833 5 33.3683 5.32611 34.0217 5.97833C34.6739 6.63167 35 7.41667 35 8.33333V31.6667C35 32.5833 34.6739 33.3683 34.0217 34.0217C33.3683 34.6739 32.5833 35 31.6667 35H8.33333ZM8.33333 31.6667H31.6667V8.33333H8.33333V31.6667Z" fill="white"/>
</svg>
