<svg width="40" height="40" viewBox="0 0 40 40" fill="none" xmlns="http://www.w3.org/2000/svg">
<path d="M36.6666 20.0001C36.6694 22.1953 36.2372 24.3694 35.3948 26.3966C34.5525 28.4238 33.3168 30.264 31.7591 31.8109C30.2142 33.3531 28.3804 34.5758 26.3627 35.409C24.345 36.2422 22.1829 36.6695 19.9999 36.6667C10.7949 36.6667 3.33327 29.2051 3.33327 20.0001C3.32744 15.7265 4.96899 11.6152 7.9166 8.52089C9.47189 6.87972 11.3457 5.57317 13.4234 4.68121C15.5011 3.78924 17.7389 3.33061 19.9999 3.33339C22.1829 3.33056 24.345 3.75796 26.3627 4.59115C28.3804 5.42434 30.2142 6.64699 31.7591 8.18922C33.3168 9.73608 34.5525 11.5763 35.3948 13.6035C36.2372 15.6307 36.6694 17.8048 36.6666 20.0001Z" stroke="white" stroke-width="4" stroke-linecap="round" stroke-linejoin="round"/>
<path d="M36.6665 20.0001C34.2348 20.0001 27.5265 19.0834 21.5223 21.7192C14.9998 24.5834 10.2773 29.0259 8.21899 31.7892" stroke="white" stroke-width="4" stroke-linecap="round" stroke-linejoin="round"/>
<path d="M13.75 4.54504C16.3583 6.95254 22.05 13.0817 24.1667 19.1667C26.2833 25.2517 27.0667 32.7334 27.55 34.8625" stroke="white" stroke-width="4" stroke-linecap="round" stroke-linejoin="round"/>
<path d="M3.46167 17.9167C6.61 18.1067 14.9442 18.2776 20.2775 16.0001C25.6108 13.7226 30.2 9.53339 31.7742 8.20422M4.58334 26.3442C6.05193 29.8991 8.70059 32.8394 12.0833 34.6701" stroke="white" stroke-width="4" stroke-linecap="round" stroke-linejoin="round"/>
<path d="M3.33327 20.0001C3.32744 15.7265 4.96899 11.6152 7.9166 8.52089C9.47189 6.87972 11.3457 5.57317 13.4234 4.6812C15.5011 3.78924 17.7389 3.33061 19.9999 3.33339M26.6666 4.72005C28.5646 5.5505 30.2915 6.72692 31.7591 8.18922C33.3168 9.73607 34.5525 11.5763 35.3948 13.6035C36.2372 15.6307 36.6694 17.8048 36.6666 20.0001C36.6666 22.0517 36.2958 24.0176 35.6166 25.8334M19.9999 36.6667C22.1829 36.6695 24.345 36.2422 26.3627 35.409C28.3804 34.5758 30.2142 33.3531 31.7591 31.8109" stroke="white" stroke-width="4" stroke-linecap="round" stroke-linejoin="round"/>
</svg>
