<svg width="40" height="40" viewBox="0 0 40 40" fill="none" xmlns="http://www.w3.org/2000/svg">
<path d="M31.4166 15.6667L24.3333 8.58335L26.7083 6.20835C27.3471 5.56946 28.1321 5.25002 29.0632 5.25002C29.9932 5.25002 30.7777 5.56946 31.4166 6.20835L33.7916 8.58335C34.4305 9.22224 34.7499 10.0067 34.7499 10.9367C34.7499 11.8678 34.4305 12.6528 33.7916 13.2917L31.4166 15.6667ZM4.99992 35V27.9167L12.4999 20.4167L3.70825 11.5417L11.5833 3.66669L20.4166 12.5417L24.3333 8.58335L31.4166 15.6667L27.4999 19.5834L36.2916 28.4584L28.4583 36.2917L19.5833 27.4584L12.0833 35H4.99992ZM14.8749 18.0417L18.0416 14.875L16.0416 12.875L14.0416 14.8334L11.7083 12.5L13.6666 10.5L11.5416 8.41669L8.41659 11.5834L14.8749 18.0417ZM28.4166 31.5834L31.5833 28.4167L29.4583 26.3334L27.4999 28.2917L25.1249 25.9584L27.1249 23.9584L25.0833 21.9584L21.9166 25.125L28.4166 31.5834ZM8.33325 31.6667H10.6666L26.7083 15.6667L24.3333 13.2917L8.33325 29.3334V31.6667Z" fill="white"/>
</svg>
